<?xml version="1.0" standalone="no"?>
<!DOCTYPE svg PUBLIC "-//W3C//DTD SVG 20010904//EN"
 "http://www.w3.org/TR/2001/REC-SVG-20010904/DTD/svg10.dtd">
<svg version="1.0" xmlns="http://www.w3.org/2000/svg"
 width="640.000000pt" height="640.000000pt" viewBox="0 0 640.000000 640.000000"
 preserveAspectRatio="xMidYMid meet">
<metadata>
Created by potrace 1.11, written by Peter Selinger 2001-2013
</metadata>
<g transform="translate(0.000000,640.000000) scale(0.100000,-0.100000)"
fill="#000000" stroke="none">
<path d="M3192 5892 c-14 -10 -13 -33 3 -44 7 -5 6 -11 -1 -15 -17 -12 -22
-36 -13 -60 5 -14 5 -23 -1 -23 -6 0 -10 -6 -10 -14 0 -8 -6 -21 -12 -28 -7
-7 -13 -20 -13 -29 0 -22 -160 -164 -222 -196 -32 -17 -53 -35 -53 -45 0 -50
47 -136 106 -194 82 -81 146 -108 264 -108 121 0 185 27 271 113 87 88 113
150 114 276 0 80 -4 97 -31 155 -27 56 -114 168 -114 147 0 -4 -10 1 -21 12
-12 11 -43 27 -68 36 -54 19 -180 30 -199 17z"/>
<path d="M3908 4963 l-56 -4 -4 -130 c-2 -81 -7 -132 -14 -137 -12 -8 -38
-138 -30 -151 3 -4 0 -53 -6 -109 -9 -89 -8 -103 6 -117 9 -9 21 -13 28 -9 7
4 5 -2 -5 -13 -11 -12 -14 -24 -9 -27 6 -3 13 0 15 6 4 9 6 10 6 1 1 -6 -4
-15 -10 -19 -13 -8 -31 16 -24 33 4 11 -18 23 -53 29 -10 2 -11 -1 -1 -12 7
-8 19 -12 27 -9 9 3 12 0 9 -9 -5 -13 34 -60 44 -54 2 2 3 1 2 -1 -2 -2 2 -10
9 -18 9 -11 14 -11 29 3 11 10 22 14 26 10 4 -3 -3 -13 -15 -22 l-22 -15 33
-42 c103 -127 192 -315 232 -489 66 -285 20 -608 -116 -820 -18 -28 -28 -53
-23 -60 4 -7 4 -10 -1 -6 -4 4 -14 3 -21 -3 -15 -12 -2 -49 17 -49 6 0 7 5 3
12 -4 6 -3 8 4 4 6 -3 22 6 36 21 14 15 26 23 26 17 0 -5 -15 -25 -32 -45 -42
-44 -68 -84 -68 -104 0 -8 -9 -15 -20 -15 -16 0 -18 -5 -14 -37 19 -146 31
-424 21 -491 -3 -18 -2 -32 3 -32 5 0 15 -3 23 -6 8 -3 17 2 21 11 5 13 1 15
-17 10 -20 -6 -21 -5 -4 8 9 8 17 22 17 31 0 9 6 27 14 39 8 12 17 38 21 57 9
40 80 173 115 212 l23 27 19 -21 c14 -17 18 -38 18 -99 0 -52 4 -79 12 -81 8
-3 14 -33 16 -81 2 -42 8 -77 13 -77 5 0 9 -20 9 -45 0 -43 1 -45 30 -45 17 0
30 -5 30 -11 0 -7 -10 -9 -25 -5 -17 4 -31 1 -40 -8 -13 -13 -11 -17 17 -30
41 -21 45 -20 23 4 -16 18 -16 20 -2 20 9 0 19 -11 23 -26 4 -16 11 -23 21
-20 8 3 12 2 9 -3 -3 -4 18 -19 47 -32 74 -33 327 -182 420 -245 47 -32 89
-54 105 -54 65 0 124 72 126 154 0 23 -16 118 -36 211 -76 352 -99 465 -134
640 -19 99 -44 223 -54 275 -71 349 -101 501 -125 620 -14 74 -50 252 -80 395
-30 143 -90 436 -135 650 -71 343 -84 393 -106 415 -24 25 -26 25 -207 26
-100 0 -208 -1 -239 -3z m-70 -369 c2 -71 1 -74 -15 -59 -13 13 -14 18 -3 25
8 5 11 18 7 38 -5 23 0 72 7 72 1 0 3 -34 4 -76z m-8 -104 c0 -5 -4 -10 -10
-10 -5 0 -10 5 -10 10 0 6 5 10 10 10 6 0 10 -4 10 -10z m17 -32 c-3 -8 -6 -5
-6 6 -1 11 2 17 5 13 3 -3 4 -12 1 -19z m88 -198 c-10 -11 -21 -18 -23 -15 -3
3 3 12 14 20 27 20 30 18 9 -5z m195 -1420 c0 -5 -4 -10 -10 -10 -5 0 -10 5
-10 10 0 6 5 10 10 10 6 0 10 -4 10 -10z m-45 -40 c-3 -5 -11 -10 -16 -10 -6
0 -7 5 -4 10 3 6 11 10 16 10 6 0 7 -4 4 -10z m115 -335 c0 -14 -4 -25 -10
-25 -11 0 -14 33 -3 43 11 11 13 8 13 -18z m-233 -337 c-3 -7 -5 -2 -5 12 0
14 2 19 5 13 2 -7 2 -19 0 -25z"/>
<path d="M3832 4750 c0 -14 2 -19 5 -12 2 6 2 18 0 25 -3 6 -5 1 -5 -13z"/>
<path d="M1983 4231 c-11 -24 -32 -116 -83 -351 -66 -308 -105 -497 -140 -665
-97 -474 -223 -1085 -236 -1140 -82 -361 -84 -392 -32 -451 37 -42 99 -63 126
-43 410 301 827 478 1282 544 123 19 462 25 645 14 55 -4 82 -4 60 1 -23 4
-30 8 -17 9 19 1 21 5 16 26 -4 15 -2 25 5 25 7 0 10 23 9 63 -1 61 -1 62 -8
17 -7 -42 -13 -39 -11 5 0 11 -2 14 -5 8 -3 -7 -10 -13 -15 -13 -5 0 -28 -19
-52 -43 -89 -89 -116 -98 -36 -12 86 93 101 111 120 138 15 19 17 27 7 27 -8
1 -6 6 6 15 19 14 19 15 -7 15 -15 0 -27 -5 -27 -12 0 -15 -13 -1 -16 17 -2
11 4 13 23 9 17 -5 24 -3 19 4 -7 11 -36 10 -75 -3 -21 -6 -22 -9 -8 -17 10
-5 17 -13 17 -19 0 -5 -10 -3 -22 5 -21 13 -31 13 -93 -5 -89 -25 -326 -42
-415 -29 -258 37 -497 211 -614 447 -67 136 -91 250 -83 396 18 334 251 592
574 637 145 19 285 -14 399 -96 145 -103 224 -254 224 -429 0 -96 -20 -170
-64 -240 -68 -105 -172 -175 -295 -196 -72 -13 -104 -7 -137 26 -18 18 -24 35
-24 70 0 59 28 89 92 99 108 16 180 99 180 206 0 144 -115 260 -257 259 -155
0 -285 -103 -322 -255 -31 -126 13 -268 116 -373 65 -68 115 -95 208 -117 156
-36 342 25 474 156 112 112 167 261 154 420 -13 181 -77 326 -199 457 l-54 58
-31 -29 c-17 -17 -31 -27 -31 -23 0 3 12 17 26 30 l26 24 -30 22 c-18 12 -38
19 -49 15 -14 -5 -15 -4 -3 4 35 25 -235 121 -310 110 -16 -2 -27 -1 -24 4 3
4 -25 8 -63 8 -48 0 -63 -3 -53 -10 12 -8 10 -10 -8 -10 -13 0 -20 4 -17 10 3
6 -1 10 -10 10 -9 0 -14 4 -10 9 3 6 -10 13 -30 17 -19 3 -33 10 -30 14 3 4
-3 14 -12 21 -14 12 -17 12 -21 0 -3 -10 -13 -4 -34 20 -18 21 -25 26 -18 12
13 -27 3 -30 -17 -5 -12 14 -14 14 -10 1 3 -8 -4 -21 -14 -27 -10 -7 -19 -20
-19 -29 0 -15 -1 -15 -12 -1 -7 9 -24 19 -37 23 -20 6 -23 4 -18 -9 4 -9 2
-16 -3 -16 -6 0 -10 15 -11 33 0 26 -2 28 -8 12 -5 -11 -6 -26 -4 -32 3 -7 -2
-13 -11 -13 -11 0 -15 7 -13 23 2 12 2 17 0 11 -6 -19 -43 -24 -50 -8 -5 15
-33 20 -33 6 0 -4 5 -13 12 -20 7 -7 8 -12 2 -12 -5 0 -3 -4 4 -9 9 -5 4 -8
-16 -7 -17 1 -28 4 -26 8 6 10 -69 45 -90 42 -10 -1 -29 4 -42 13 -32 21 -30
7 4 -26 79 -79 155 -162 151 -166 -3 -2 -58 46 -123 107 -64 62 -127 113 -139
115 -12 2 -30 4 -39 5 -13 2 -16 8 -12 21 5 16 2 18 -15 12 -16 -5 -21 -2 -21
11 0 13 -3 14 -14 5 -17 -14 -41 10 -25 26 6 6 5 10 -4 10 -7 0 -18 -12 -24
-26z m702 -131 c3 -5 1 -10 -4 -10 -6 0 -11 5 -11 10 0 6 2 10 4 10 3 0 8 -4
11 -10z m-121 -16 c3 -8 2 -12 -4 -9 -6 3 -10 10 -10 16 0 14 7 11 14 -7z
m283 -60 c-3 -3 -12 -4 -19 -1 -8 3 -5 6 6 6 11 1 17 -2 13 -5z m1 -98 c4 -18
-14 -46 -29 -46 -11 0 -12 54 -2 64 11 10 28 1 31 -18z m-403 -23 l18 -28 -29
25 c-16 14 -31 26 -33 28 -2 1 3 2 11 2 9 0 24 -12 33 -27z"/>
<path d="M2687 4151 c3 -12 9 -21 14 -21 14 0 11 16 -5 29 -12 10 -13 8 -9 -8z"/>
<path d="M3937 2719 c-3 -11 -10 -18 -15 -15 -5 3 -17 -3 -27 -14 -10 -11 -13
-20 -8 -20 6 0 14 7 17 16 4 9 9 14 12 11 3 -3 0 -16 -6 -29 -12 -23 -12 -23
6 -3 11 11 27 27 37 36 16 13 17 17 4 27 -12 10 -16 8 -20 -9z"/>
<path d="M3628 2153 c7 -3 16 -2 19 1 4 3 -2 6 -13 5 -11 0 -14 -3 -6 -6z"/>
<path d="M2610 1303 c-35 -13 -40 -35 -40 -190 0 -146 1 -153 20 -153 19 0 20
7 20 143 0 148 5 167 42 167 23 0 47 -52 88 -187 20 -69 37 -106 50 -113 32
-17 88 -12 110 10 18 18 20 33 20 170 0 143 -1 150 -20 150 -19 0 -20 -7 -20
-139 0 -149 -5 -166 -52 -159 -24 3 -27 9 -77 184 -30 103 -75 141 -141 117z"/>
<path d="M1927 1280 c-36 -29 -47 -76 -47 -207 0 -106 1 -113 20 -113 17 0 19
8 22 77 l3 78 35 -3 c19 -1 72 1 118 4 61 4 82 9 82 20 0 11 -23 14 -120 14
l-120 0 0 25 c0 38 26 82 52 89 13 3 60 6 106 6 66 0 82 3 82 15 0 12 -18 15
-104 15 -89 0 -107 -3 -129 -20z"/>
<path d="M2240 1176 c0 -69 4 -136 10 -150 24 -65 152 -89 221 -43 39 26 60
77 55 134 -2 21 -4 71 -5 111 -1 55 -4 72 -15 72 -11 0 -15 -25 -18 -124 -3
-116 -5 -126 -27 -150 -35 -37 -107 -37 -150 0 l-31 26 0 124 c0 117 -1 124
-20 124 -19 0 -20 -7 -20 -124z"/>
<path d="M3230 1130 c0 -163 1 -170 20 -170 18 0 20 7 20 74 l0 74 75 7 c41 4
86 4 100 1 24 -6 25 -9 25 -82 0 -72 1 -75 23 -72 24 3 24 -5 19 241 -2 90 -3
97 -22 97 -18 0 -20 -7 -20 -75 l0 -76 -97 3 -98 3 -3 73 c-3 64 -5 72 -22 72
-19 0 -20 -8 -20 -170z"/>
<path d="M3594 1285 c-4 -8 -5 -69 -3 -135 4 -119 4 -120 36 -152 27 -27 41
-32 91 -36 64 -5 101 9 137 48 17 19 20 39 23 156 4 131 3 134 -17 134 -20 0
-21 -5 -21 -116 0 -155 -16 -183 -103 -184 -41 0 -53 5 -78 29 -29 29 -29 30
-29 150 0 102 -2 121 -15 121 -9 0 -18 -7 -21 -15z"/>
<path d="M3960 1285 c0 -12 18 -15 99 -15 111 0 131 -9 131 -60 0 -51 -20 -60
-131 -60 -92 0 -99 -1 -99 -20 0 -19 7 -20 103 -20 67 0 107 -4 115 -12 16
-16 15 -73 -1 -86 -7 -6 -58 -13 -112 -14 -86 -3 -100 -5 -103 -20 -3 -16 7
-18 111 -18 106 0 115 2 135 23 30 32 38 79 18 117 -14 29 -14 34 1 56 20 31
12 89 -18 120 -21 22 -30 24 -136 24 -94 0 -113 -3 -113 -15z"/>
<path d="M4320 1168 c0 -146 6 -165 60 -193 50 -26 150 -16 184 18 30 30 36
59 36 182 0 115 -2 126 -17 123 -16 -3 -19 -20 -23 -132 -5 -119 -7 -129 -29
-147 -36 -29 -115 -26 -146 6 -14 13 -25 34 -25 47 -1 13 -2 68 -3 123 -2 86
-4 100 -19 103 -16 3 -18 -8 -18 -130z"/>
<path d="M3050 1151 c-7 -15 -5 -24 8 -41 16 -19 22 -21 40 -11 24 13 29 40
10 59 -18 18 -46 14 -58 -7z"/>
<path d="M2243 860 c-3 -11 -12 -20 -19 -20 -8 0 -14 -4 -14 -10 0 -5 5 -10
11 -10 6 0 8 -7 5 -16 -19 -50 -18 -62 6 -66 35 -5 31 -42 -4 -46 -16 -2 -28
-8 -28 -14 0 -6 12 -8 30 -4 28 5 30 3 30 -24 0 -17 5 -30 10 -30 6 0 10 13
10 29 0 21 6 31 23 36 l22 8 -22 4 c-27 5 -31 39 -5 46 16 4 16 5 0 6 -12 1
-18 9 -18 26 0 14 -4 25 -10 25 -5 0 -10 -11 -10 -25 0 -16 -6 -25 -15 -25
-18 0 -19 11 -3 45 8 18 19 25 40 25 15 0 28 5 28 10 0 6 -12 10 -26 10 -21 0
-25 4 -21 20 3 11 1 20 -5 20 -5 0 -12 -9 -15 -20z"/>
<path d="M2370 864 c0 -9 -9 -18 -20 -21 -23 -6 -27 -23 -5 -23 21 0 7 -30
-19 -40 -18 -8 -19 -9 -2 -9 14 -1 17 -6 12 -26 -6 -24 -4 -25 39 -25 49 0 55
-8 25 -35 -16 -14 -22 -15 -34 -5 -9 6 -21 10 -28 8 -7 -3 6 -16 29 -31 44
-28 83 -38 50 -13 -17 13 -16 15 8 44 14 16 25 33 25 36 0 3 -21 6 -46 6 -38
0 -45 3 -42 18 2 12 16 19 53 23 53 6 52 10 -5 13 -50 2 -48 30 3 34 46 4 49
22 3 22 -29 0 -33 3 -29 20 3 11 0 20 -6 20 -6 0 -11 -7 -11 -16z"/>
<path d="M2636 872 c-4 -7 -5 -16 -2 -19 8 -9 -15 -34 -25 -27 -5 3 -9 0 -9
-5 0 -6 7 -11 15 -11 9 0 15 -9 15 -25 0 -14 -6 -25 -12 -25 -9 0 -12 -16 -9
-57 2 -32 6 -52 8 -45 3 6 18 12 34 12 28 0 29 2 29 45 0 33 -4 45 -15 45 -26
0 -19 48 8 53 l22 4 -22 8 c-14 4 -23 17 -25 34 -2 18 -5 22 -12 13z m24 -152
c0 -23 -4 -30 -20 -30 -14 0 -20 7 -20 23 0 27 7 37 27 37 8 0 13 -12 13 -30z"/>
<path d="M2990 845 l0 -35 -55 0 c-30 0 -55 -4 -55 -10 0 -5 22 -10 49 -10 28
0 52 -4 56 -10 11 -18 -23 -77 -66 -112 -24 -20 -41 -39 -38 -42 10 -11 73 39
98 77 l24 37 23 -37 c24 -41 77 -78 95 -67 6 4 -6 16 -29 30 -39 23 -87 97
-76 116 3 4 30 8 60 8 34 0 53 4 49 10 -3 6 -31 10 -61 10 l-54 0 0 35 c0 19
-4 35 -10 35 -5 0 -10 -16 -10 -35z"/>
<path d="M3475 863 c-8 -26 -30 -30 -39 -8 -3 8 -13 15 -22 15 -13 0 -14 -3
-4 -15 11 -13 8 -15 -19 -15 -24 0 -31 -4 -31 -20 0 -23 15 -27 24 -5 4 12 25
15 101 15 90 0 96 -1 105 -22 8 -22 9 -22 9 5 1 23 -3 27 -25 27 -21 0 -24 3
-19 23 l6 22 -20 -22 c-10 -13 -26 -23 -34 -23 -9 0 -18 10 -20 23 l-4 22 -8
-22z"/>
<path d="M3720 855 c0 -16 -6 -25 -15 -25 -8 0 -15 -4 -15 -10 0 -5 7 -10 15
-10 10 0 15 -10 15 -30 0 -18 -6 -33 -15 -36 -8 -4 -15 -11 -15 -16 0 -6 7 -8
15 -4 23 8 21 -69 -2 -84 -16 -9 -15 -10 7 -8 22 3 25 8 28 53 2 28 7 54 13
59 12 13 12 29 -1 21 -6 -3 -10 5 -10 19 0 13 6 27 13 30 10 5 10 7 0 12 -7 3
-13 17 -13 30 0 13 -4 24 -10 24 -5 0 -10 -11 -10 -25z"/>
<path d="M4068 874 c-5 -4 -8 -27 -8 -50 0 -32 -4 -44 -17 -47 -17 -4 -17 -5
0 -6 20 -1 17 -27 -9 -68 -16 -26 -17 -33 -6 -33 5 0 14 10 20 23 9 19 11 16
11 -25 1 -27 6 -48 11 -48 6 0 10 23 10 52 0 40 3 49 12 40 22 -22 32 -12 10
11 -27 28 -28 44 -4 50 15 4 15 5 0 6 -13 1 -18 12 -20 52 -2 28 -6 47 -10 43z"/>
<path d="M4187 866 c-3 -9 -16 -13 -31 -12 -14 2 -26 -1 -26 -5 0 -5 14 -9 30
-9 41 0 38 -20 -2 -21 -28 -2 -29 -2 -8 -6 39 -7 46 -21 14 -28 -53 -12 -50
-13 34 -14 45 -1 82 3 82 8 0 6 -16 7 -35 4 -28 -4 -35 -2 -35 10 0 10 11 17
33 20 l32 4 -32 1 c-45 3 -42 22 3 22 23 0 33 4 28 11 -3 6 -17 9 -31 6 -15
-3 -27 1 -30 9 -7 18 -19 18 -26 0z"/>
<path d="M2550 860 c0 -5 9 -14 20 -20 22 -12 27 -1 8 18 -14 14 -28 16 -28 2z"/>
<path d="M2713 864 c-9 -4 -13 -32 -13 -87 0 -64 -4 -89 -20 -114 -15 -25 -16
-33 -6 -33 8 0 21 18 30 40 11 28 22 40 36 40 16 0 20 -7 20 -34 0 -28 -4 -36
-22 -39 -16 -4 -13 -5 7 -4 l30 2 0 115 0 115 -25 2 c-14 1 -31 -1 -37 -3z
m47 -39 c0 -18 -5 -25 -20 -25 -15 0 -20 7 -20 25 0 18 5 25 20 25 15 0 20 -7
20 -25z m0 -70 c0 -18 -5 -25 -20 -25 -15 0 -20 7 -20 25 0 18 5 25 20 25 15
0 20 -7 20 -25z"/>
<path d="M3775 857 c-2 -7 -6 -50 -9 -97 -2 -47 -7 -98 -11 -115 l-6 -30 16
28 c9 16 19 60 22 99 l6 70 74 -4 74 -3 -3 30 -3 30 -78 2 c-53 1 -79 -2 -82
-10z m145 -22 c0 -12 -14 -15 -65 -15 -51 0 -65 3 -65 15 0 12 14 15 65 15 51
0 65 -3 65 -15z"/>
<path d="M4408 863 c-64 -7 -42 -18 27 -15 36 2 65 8 65 13 0 9 -20 9 -92 2z"/>
<path d="M1870 850 c0 -5 7 -10 15 -10 10 0 15 -10 15 -30 0 -20 -5 -30 -15
-30 -8 0 -15 -4 -15 -10 0 -5 7 -10 15 -10 11 0 15 -11 15 -40 0 -29 -4 -40
-15 -40 -8 0 -15 -5 -15 -11 0 -6 8 -8 18 -5 9 3 29 8 45 12 31 7 36 24 7 24
-16 0 -20 7 -20 30 0 20 5 30 15 30 8 0 15 5 15 10 0 6 -7 10 -15 10 -10 0
-15 10 -15 30 0 20 5 30 15 30 8 0 15 5 15 10 0 6 -18 10 -40 10 -22 0 -40 -4
-40 -10z"/>
<path d="M1980 850 c0 -6 27 -10 60 -10 33 0 60 4 60 10 0 6 -27 10 -60 10
-33 0 -60 -4 -60 -10z"/>
<path d="M4030 845 c0 -11 5 -27 10 -35 8 -12 10 -12 10 5 0 11 -5 27 -10 35
-8 12 -10 12 -10 -5z"/>
<path d="M4100 835 c-6 -15 -8 -30 -6 -33 3 -3 10 8 16 23 6 15 8 30 6 33 -3
3 -10 -8 -16 -23z"/>
<path d="M4546 830 c-51 -38 -52 -40 -34 -40 8 0 32 16 54 35 48 42 34 46 -20
5z"/>
<path d="M4420 823 c0 -14 19 -38 25 -32 8 8 -5 39 -16 39 -5 0 -9 -3 -9 -7z"/>
<path d="M4480 816 c-6 -9 -10 -21 -8 -28 3 -8 9 -4 17 10 15 28 9 39 -9 18z"/>
<path d="M4380 799 c7 -11 14 -19 16 -16 7 7 -7 37 -17 37 -6 0 -5 -9 1 -21z"/>
<path d="M3402 784 c3 -25 5 -26 81 -27 l77 -2 0 28 0 27 -81 0 -80 0 3 -26z
m138 6 c0 -6 -27 -10 -61 -10 -37 0 -58 4 -54 10 3 6 31 10 61 10 30 0 54 -4
54 -10z"/>
<path d="M2540 791 c0 -13 29 -35 37 -28 7 8 -15 37 -28 37 -5 0 -9 -4 -9 -9z"/>
<path d="M3800 780 c0 -5 10 -10 22 -10 l21 0 -22 -24 -23 -24 67 -4 c37 -1
69 -1 71 1 5 6 -27 41 -38 41 -4 0 -8 -7 -8 -15 0 -10 -10 -15 -32 -15 -30 0
-31 0 -13 20 12 13 31 20 57 20 21 0 38 5 38 10 0 6 -30 10 -70 10 -40 0 -70
-4 -70 -10z"/>
<path d="M4556 760 c-51 -38 -52 -40 -34 -40 8 0 32 16 54 35 48 42 34 46 -20
5z"/>
<path d="M1973 773 c29 -8 23 -75 -12 -112 -30 -32 -30 -47 0 -30 25 13 42 46
48 94 4 27 12 41 23 43 14 3 18 -7 20 -65 3 -65 4 -68 29 -71 31 -4 54 21 43
45 -7 16 -8 16 -11 -4 -5 -25 -31 -39 -39 -19 -3 7 -4 35 -2 62 3 42 6 49 28
55 14 4 -12 7 -60 7 -47 0 -77 -2 -67 -5z"/>
<path d="M4427 766 c-4 -9 -19 -16 -34 -17 -26 -1 -26 -1 -5 -7 31 -9 30 -18
-2 -58 -15 -19 -22 -34 -17 -34 5 0 18 11 29 25 11 14 23 25 26 25 3 0 7 -19
8 -42 l1 -43 4 38 c4 36 24 50 38 27 3 -5 11 -10 17 -10 6 0 3 9 -7 20 -10 11
-25 20 -32 20 -23 0 -9 24 18 31 23 7 23 7 2 8 -12 1 -26 8 -31 17 -8 15 -10
15 -15 0z"/>
<path d="M4141 683 c1 -44 3 -59 8 -43 6 22 13 25 54 28 37 2 47 0 47 -12 0
-11 -10 -16 -31 -16 -17 0 -28 -4 -24 -10 9 -15 51 -12 64 4 7 8 11 36 9 63
l-3 48 -62 3 -63 3 1 -68z m109 47 c0 -5 -22 -10 -50 -10 -27 0 -50 5 -50 10
0 6 23 10 50 10 28 0 50 -4 50 -10z m0 -40 c0 -5 -22 -10 -50 -10 -27 0 -50 5
-50 10 0 6 23 10 50 10 28 0 50 -4 50 -10z"/>
<path d="M3378 731 c8 -4 31 -7 52 -5 22 2 42 -1 45 -6 4 -6 -14 -10 -44 -10
-64 0 -67 -18 -3 -23 46 -3 46 -3 -10 -5 -74 -3 -76 -22 -3 -22 30 0 55 -4 55
-10 0 -5 -12 -10 -27 -10 -20 0 -24 -3 -16 -11 15 -15 63 -3 63 16 0 12 14 15
61 15 74 0 71 19 -4 22 -50 1 -51 2 -9 5 57 6 54 23 -5 23 -56 0 -47 17 12 23
22 2 -9 4 -70 5 -63 1 -104 -2 -97 -7z"/>
<path d="M2566 712 c-11 -18 -18 -82 -8 -82 5 0 12 12 15 28 3 15 9 35 12 45
7 16 -9 25 -19 9z"/>
<path d="M4565 690 c-16 -16 -42 -35 -57 -41 -15 -6 -25 -15 -22 -20 10 -17
124 59 124 82 0 16 -14 9 -45 -21z"/>
<path d="M3861 703 c-1 -8 -15 -13 -33 -13 -23 0 -29 -3 -19 -9 8 -5 20 -7 27
-4 16 6 30 -17 15 -27 -7 -4 -23 -5 -35 -3 -13 3 -27 0 -30 -6 -5 -8 18 -11
73 -11 45 0 81 4 81 9 0 5 -14 9 -30 9 -47 -2 -57 18 -12 25 35 5 38 17 5 17
-17 0 -34 6 -36 13 -4 10 -6 10 -6 0z"/>
<path d="M3306 433 c-6 -14 -5 -15 5 -6 7 7 10 15 7 18 -3 3 -9 -2 -12 -12z"/>
<path d="M4100 440 c0 -5 5 -10 11 -10 5 0 7 5 4 10 -3 6 -8 10 -11 10 -2 0
-4 -4 -4 -10z"/>
<path d="M2625 430 c-3 -5 -1 -10 4 -10 6 0 11 5 11 10 0 6 -2 10 -4 10 -3 0
-8 -4 -11 -10z"/>
<path d="M2940 395 c0 -27 3 -46 6 -42 3 3 6 22 6 42 0 20 -3 39 -6 42 -3 4
-6 -15 -6 -42z"/>
<path d="M2158 407 c-3 -19 -2 -25 4 -19 6 6 8 18 6 28 -3 14 -5 12 -10 -9z"/>
<path d="M2020 409 c0 -5 5 -7 10 -4 6 3 10 8 10 11 0 2 -4 4 -10 4 -5 0 -10
-5 -10 -11z"/>
<path d="M3296 393 c-6 -14 -5 -15 5 -6 7 7 10 15 7 18 -3 3 -9 -2 -12 -12z"/>
<path d="M3905 399 c-4 -6 -5 -12 -2 -15 2 -3 7 2 10 11 7 17 1 20 -8 4z"/>
<path d="M4261 394 c0 -11 3 -14 6 -6 3 7 2 16 -1 19 -3 4 -6 -2 -5 -13z"/>
<path d="M3671 374 c0 -11 3 -14 6 -6 3 7 2 16 -1 19 -3 4 -6 -2 -5 -13z"/>
<path d="M4100 366 c0 -2 7 -7 16 -10 8 -3 12 -2 9 4 -6 10 -25 14 -25 6z"/>
</g>
</svg>
